<?xml version="1.0" encoding="UTF-8"?>
<svg id="_Слой_1" data-name="Слой 1" xmlns="http://www.w3.org/2000/svg" viewBox="0 0 441.34 100.13">
  <defs>
    <style>
      .cls-1 {
        fill: #fff;
      }

      .cls-2 {
        fill: #9163ff;
      }
    </style>
  </defs>
  <g>
    <polygon class="cls-1" points="123.74 23.52 99.41 23.52 99.41 37.62 123.74 37.62 123.74 74.8 140.66 74.8 140.66 37.62 164.99 37.62 164.99 23.52 140.66 23.52 123.74 23.52"/>
    <path class="cls-1" d="M218.1,23.52h-44.84v51.28h16.93v-9.81h15.4l8.19,9.81h20.68l-9.26-11.09c7.95-2.9,13.63-10.51,13.63-19.46h0c0-11.45-9.28-20.73-20.73-20.73ZM190.19,37.62h25.09c3.67,0,6.64,2.97,6.64,6.64s-2.97,6.64-6.64,6.64h-25.09v-13.27Z"/>
    <polygon class="cls-1" points="245.46 23.52 245.46 37.62 245.46 43.09 245.46 55.23 245.46 60.7 245.46 74.8 262.39 74.8 302.57 74.8 302.57 60.7 262.39 60.7 262.39 55.23 290.81 55.23 290.81 43.09 262.39 43.09 262.39 37.62 302.57 37.62 302.57 23.52 262.39 23.52 245.46 23.52"/>
    <polygon class="cls-1" points="310.75 23.52 310.75 37.62 310.75 43.09 310.75 55.23 310.75 60.7 310.75 74.8 327.67 74.8 367.86 74.8 367.86 60.7 327.67 60.7 327.67 55.23 356.09 55.23 356.09 43.09 327.67 43.09 327.67 37.62 367.86 37.62 367.86 23.52 327.67 23.52 310.75 23.52"/>
    <path class="cls-1" d="M415.7,23.52h-39.67v51.28h39.67c14.16,0,25.64-11.48,25.64-25.64h0c0-14.16-11.48-25.64-25.64-25.64ZM412.87,60.7h-19.92v-23.08h19.92c6.37,0,11.54,5.17,11.54,11.54s-5.17,11.54-11.54,11.54Z"/>
  </g>
  <g>
    <path class="cls-2" d="M53.52,18.93c-4.15-2.12-9.27-2.14-13.45-.05l-11.06,5.43,16.65,8.78,7.85-4.01c6.98-4.16,4.43-7.88,0-10.14Z"/>
    <path class="cls-2" d="M78.18,69.73s-31.14,17.26-31.14,17.26l-35.58-20.06v-8.55l35.93,20.49,33.37-18.74c5.33-3.15,7.18-4.93,7.18-8.96v-11.88c-.41,4.66-3.44,6.71-9.68,10.51,0,0-30.19,16.59-30.87,16.96v-.08L11.45,46.76v-8.74l35.76,18.91,26.11-14.43c14.13-7.91,24.18-20.91-3.66-35.56C54.55-1.73,36.3-2.51,21.82,5.93L0,18.53l11.15,5.76,17.55-9.89c12.59-7.43,23.45-5.92,33.17-.92,7.15,3.82,16.04,11.19,3.95,19.17l-18.79,10.16L0,18.53v50.15h0v4.95h0v.16l47.03,26.34v-.16l32.2-18.06c8.44-4.48,8.51-7.79,8.54-11.04l.15-11.93c-.42,4.66-3.6,7.34-9.76,10.79Z"/>
  </g>
</svg>